<svg id="Layer_1" data-name="Layer 1" xmlns="http://www.w3.org/2000/svg" viewBox="0 0 414.97 488.95"><defs><style>.cls-1{fill:none;stroke:#231f20;stroke-miterlimit:10;}.cls-2{fill:#1f2024;}</style></defs><path class="cls-1" d="M264.87,324.37c.87-.05,3.62.25,4.49.21"/><path class="cls-2" d="M291.7,132.59c-33.33-18.91-70.73-36-112.32-50.93C120.32,60.49,62,47.33,9.63,42l-.28,0,31-42h0c54,8.09,113.73,25.21,174,51.34,49.7,21.54,93.42,46.45,129.63,72.85h0l-52.3,8.4"/><path class="cls-2" d="M357.69,299.29c-12-3.75-39.56-6.16-52.67-6.72-34.66-1.45-66.63-1.27-96.62-1.27-50.33,0-70.71-12.8-72-16.42-.89-2.51,3.15-14.63,24.05-31.42,26.46-21.25,67.91-40.37,113.72-52.46,33.19-8.76,66.58-13.39,96.58-13.39,7,0,12.7.19,18.6.64h0l-35.55-42.67h0c-29.7,1.27-60.79,6.07-94,14.84C149.25,179.6,73,240.88,89.39,287.29S200.08,330,315.5,335.7l-36.43-1.64c4.44.19,23.62.11,36.2,1.64,52.17,6.34,49.9,13.57,50.46,15.53.72,2.56-3.16,14.64-24.06,31.43C315.22,403.91,273.77,423,228,435.12c-33.18,8.76-66.58,13.39-96.58,13.39-52.71-3.26-62.86-6.27-71.11-7.37L0,428.82l36.47,49c54.56,9.3,120.32,20.44,205.86-2.13,110.56-29.18,186.85-90.46,170.41-136.87-11.18-31.57-62.37-48.77-128.75-47"/></svg>